<svg width="458" height="458" viewBox="0 0 458 458" fill="none" xmlns="http://www.w3.org/2000/svg">
  <circle class="bauble-background" cx="229" cy="229" r="228" fill="black" stroke="white" stroke-width="2"/>
  <g class="lines">
    <line class="line-1" x1="106" y1="35" x2="350" y2="35" stroke="white" stroke-width="2"/>
    <line class="line-3" x1="106" y1="421" x2="350" y2="421" stroke="white" stroke-width="2"/>
    <line class="line-2" x1="83" y1="54" x2="374" y2="54" stroke="white" stroke-width="2"/>
    <line class="line-5" x1="31.9975" y1="116" x2="426.997" y2="115" stroke="white" stroke-width="2"/>
    <line class="line-4" x1="138" y1="439" x2="316" y2="439" stroke="white" stroke-width="2"/>
  </g>
  <g class="stars-top">
    <path class="star-1" d="M76 65L81.8374 82.9656H100.727L85.4451 94.0689L91.2824 112.034L76 100.931L60.7176 112.034L66.5549 94.0689L51.2725 82.9656H70.1626L76 65Z" fill="white"/>
    <path class="star-2" d="M125 65L130.837 82.9656H149.727L134.445 94.0689L140.282 112.034L125 100.931L109.718 112.034L115.555 94.0689L100.273 82.9656H119.163L125 65Z" fill="white"/>
    <path class="star-3" d="M177 65L182.837 82.9656H201.727L186.445 94.0689L192.282 112.034L177 100.931L161.718 112.034L167.555 94.0689L152.273 82.9656H171.163L177 65Z" fill="white"/>
    <path class="star-4" d="M229 65L234.837 82.9656H253.727L238.445 94.0689L244.282 112.034L229 100.931L213.718 112.034L219.555 94.0689L204.273 82.9656H223.163L229 65Z" fill="white"/>
    <path class="star-5" d="M278 65L283.837 82.9656H302.727L287.445 94.0689L293.282 112.034L278 100.931L262.718 112.034L268.555 94.0689L253.273 82.9656H272.163L278 65Z" fill="white"/>
    <path class="star-6" d="M330 65L335.837 82.9656H354.727L339.445 94.0689L345.282 112.034L330 100.931L314.718 112.034L320.555 94.0689L305.273 82.9656H324.163L330 65Z" fill="white"/>
    <path class="star-7" d="M379 65L384.837 82.9656H403.727L388.445 94.0689L394.282 112.034L379 100.931L363.718 112.034L369.555 94.0689L354.273 82.9656H373.163L379 65Z" fill="white"/>
  </g>
  <g class="stars-bottom">
    <path class="star-17" d="M107 361L112.837 378.966H131.727L116.445 390.069L122.282 408.034L107 396.931L91.7176 408.034L97.5549 390.069L82.2725 378.966H101.163L107 361Z" fill="white"/>
    <path class="star-18" d="M156 361L161.837 378.966H180.727L165.445 390.069L171.282 408.034L156 396.931L140.718 408.034L146.555 390.069L131.273 378.966H150.163L156 361Z" fill="white"/>
    <path class="star-19" d="M208 361L213.837 378.966H232.727L217.445 390.069L223.282 408.034L208 396.931L192.718 408.034L198.555 390.069L183.273 378.966H202.163L208 361Z" fill="white"/>
    <path class="star-20" d="M260 361L265.837 378.966H284.727L269.445 390.069L275.282 408.034L260 396.931L244.718 408.034L250.555 390.069L235.273 378.966H254.163L260 361Z" fill="white"/>
    <path class="star-21" d="M309 361L314.837 378.966H333.727L318.445 390.069L324.282 408.034L309 396.931L293.718 408.034L299.555 390.069L284.273 378.966H303.163L309 361Z" fill="white"/>
    <path class="star-22" d="M359.5 361L365.001 378.62L382.801 378.62L368.4 389.51L373.901 407.13L359.5 396.24L345.099 407.13L350.6 389.51L336.199 378.62L353.999 378.62L359.5 361Z" fill="white"/>
  </g>
  <g class="stars-middle">
    <path class="star-8" d="M19 223L23.2658 236.474H37.0701L25.9022 244.802L30.1679 258.276L19 249.948L7.83208 258.276L12.0978 244.802L0.929926 236.474H14.7342L19 223Z" fill="white"/>
    <path class="star-9" d="M57.5 223L61.878 236.474H76.0456L64.5838 244.802L68.9618 258.276L57.5 249.948L46.0382 258.276L50.4162 244.802L38.9544 236.474H53.122L57.5 223Z" fill="white"/>
    <path class="star-10" d="M96 223L100.266 236.474H114.07L102.902 244.802L107.168 258.276L96 249.948L84.8321 258.276L89.0978 244.802L77.9299 236.474H91.7342L96 223Z" fill="white"/>
    <path class="star-11" d="M134 223L138.266 236.474H152.07L140.902 244.802L145.168 258.276L134 249.948L122.832 258.276L127.098 244.802L115.93 236.474H129.734L134 223Z" fill="white"/>
    <path class="star-12" d="M172.5 223L176.878 236.474H191.046L179.584 244.802L183.962 258.276L172.5 249.948L161.038 258.276L165.416 244.802L153.954 236.474H168.122L172.5 223Z" fill="white"/>
    <path class="star-13" d="M211 223L215.266 236.474H229.07L217.902 244.802L222.168 258.276L211 249.948L199.832 258.276L204.098 244.802L192.93 236.474H206.734L211 223Z" fill="white"/>
    <path class="star-14" d="M249 223L253.266 236.474H267.07L255.902 244.802L260.168 258.276L249 249.948L237.832 258.276L242.098 244.802L230.93 236.474H244.734L249 223Z" fill="white"/>
    <path class="star-15" d="M287.5 223L291.878 236.474H306.046L294.584 244.802L298.962 258.276L287.5 249.948L276.038 258.276L280.416 244.802L268.954 236.474H283.122L287.5 223Z" fill="white"/>
    <path class="star-16" d="M326 223L330.266 236.474H344.07L332.902 244.802L337.168 258.276L326 249.948L314.832 258.276L319.098 244.802L307.93 236.474H321.734L326 223Z" fill="white"/>
    <path class="star-24" d="M362 223L366.266 236.474H380.07L368.902 244.802L373.168 258.276L362 249.948L350.832 258.276L355.098 244.802L343.93 236.474H357.734L362 223Z" fill="white"/>
    <path class="star-25" d="M400.5 223L404.878 236.474H419.046L407.584 244.802L411.962 258.276L400.5 249.948L389.038 258.276L393.416 244.802L381.954 236.474H396.122L400.5 223Z" fill="white"/>
    <path class="star-26" d="M439 223L443.266 236.474H457.07L445.902 244.802L450.168 258.276L439 249.948L427.832 258.276L432.098 244.802L420.93 236.474H434.734L439 223Z" fill="white"/>
  </g>
  <g class="zigzag-top">
    <path class="zigzag-1" d="M386.5 120H429C433 120 434.5 130.5 434.5 130.5L411.5 178L386.5 137L356.5 178L330 137L302 174L278 137L248 178L220 137L191 174L165 137L137 174L109.5 137L76.9999 174L45.4999 137C45.4999 137 1.41852 193.787 7.99997 174C13.1497 158.517 17.5487 140.12 28.4999 120H109.5H165H220H278H330H386.5Z" fill="white"/>
    <path class="zigzag-2" d="M46.1371 174L2 214.814C3.53489 214.814 33.9126 214.978 77.2892 215.217L78.6371 217L79.7689 215.23C96.086 215.32 114.16 215.42 133.177 215.525L134.137 217L135.023 215.535C152.252 215.63 170.227 215.73 188.348 215.83L189.137 217L189.92 215.839C208.891 215.944 228.002 216.05 246.566 216.153L247.137 217L247.607 216.159C265.38 216.257 282.638 216.353 298.774 216.442L299.137 217L299.478 216.446C320.522 216.563 339.636 216.668 355.466 216.755L355.637 217L355.778 216.757C382.901 216.906 400.308 217 401.137 217H457.5C457.5 217 455 200.314 454 197C453 193.686 443.5 178.814 443.5 178.814L417.5 204.814C417.5 204.814 405.137 217 401.137 217L380.637 174L355.778 216.757C355.675 216.756 355.571 216.756 355.466 216.755L325.637 174L299.478 216.446C299.244 216.445 299.009 216.444 298.774 216.442L271.137 174L247.607 216.159C247.26 216.157 246.913 216.155 246.566 216.153L218.137 174L189.92 215.839C189.396 215.836 188.872 215.833 188.348 215.83L160.137 174L135.023 215.535C134.406 215.532 133.791 215.528 133.177 215.525L106.137 174L79.7689 215.23C78.9377 215.226 78.1111 215.221 77.2892 215.217L46.1371 174Z" fill="white"/>
  </g>
  <g class="zigzag-bottom">
    <path class="zigzag-3" d="M383.5 360H415C419 360 427 343 427 343L408.5 302L383.5 343L353.5 302L327 343L299 306L275 343L245 302L217 343L188 306L162 343L134 306L106.5 343L73.9999 306L42.4999 343C42.4999 343 7.91855 286.213 14.5 306C19.6498 321.483 30.5 341 42.4999 360H106.5H162H217H275H327H383.5Z" fill="white"/>
    <path class="zigzag-4" d="M43.1371 306L4 264.5C5.4907 264.5 33.8332 264.394 74.7016 264.238L75.6371 263L76.4244 264.231C92.7946 264.169 111.109 264.098 130.47 264.024L131.137 263L131.753 264.019C149.092 263.952 167.251 263.883 185.589 263.812L186.137 263L186.682 263.808C205.761 263.734 225.021 263.66 243.741 263.588L244.137 263L244.464 263.585C262.312 263.516 279.661 263.45 295.885 263.387L296.137 263L296.375 263.385C317.467 263.304 336.642 263.23 352.519 263.17L352.637 263L352.735 263.169C379.86 263.065 397.302 263 398.137 263H454.5C454.5 263 451.5 276.686 450.5 280C449.5 283.314 444 303 444 303L414.5 275.186C414.5 275.186 402.137 263 398.137 263L377.637 306L352.735 263.169C352.663 263.169 352.591 263.17 352.519 263.17L322.637 306L296.375 263.385C296.211 263.386 296.048 263.386 295.885 263.387L268.137 306L244.464 263.585C244.223 263.586 243.982 263.587 243.741 263.588L215.137 306L186.682 263.808C186.318 263.809 185.954 263.811 185.589 263.812L157.137 306L131.753 264.019C131.325 264.021 130.897 264.022 130.47 264.024L103.137 306L76.4244 264.231C75.8477 264.233 75.2734 264.236 74.7016 264.238L43.1371 306Z" fill="white"/>
  </g>
</svg>
