<svg width="409" height="409" viewBox="0 0 409 409" fill="none" xmlns="http://www.w3.org/2000/svg">
<!-- <rect width="409" height="409" fill="#E5E5E5"/> -->
  <g class="bauble">
    <path d="M396 204.5C396 310.263 310.263 396 204.5 396C98.7375 396 13 310.263 13 204.5C13 98.7375 98.7375 13 204.5 13C310.263 13 396 98.7375 396 204.5Z" fill="black"/>
    <path d="M23 155L357 91M12.4966 194.551L373.456 120.354M20.3764 241.778L388.376 162.778M396 204.5C396 310.263 310.263 396 204.5 396C98.7375 396 13 310.263 13 204.5C13 98.7375 98.7375 13 204.5 13C310.263 13 396 98.7375 396 204.5Z" stroke="white" stroke-width="25"/>
  </g>
</svg>
