<svg width="180" height="762" viewBox="0 0 180 762" fill="none" xmlns="http://www.w3.org/2000/svg">
<!-- <rect width="180" height="762" fill="#E5E5E5"/> -->
  <g class="paw">
    <path class="paw-outline" d="M35 168V761H148.5V168C148.5 168 180 90 178.5 41C177 -8.00001 40.7949 -16.9481 7.99999 41C-16.9738 85.1283 35 168 35 168Z" fill="black" stroke="black"/>
    <g id="paw-pads">
      <path d="M78.2363 36.8327C81.9718 47.9708 78.032 59.3369 69.4365 62.2197C60.841 65.1024 50.8448 58.4101 47.1093 47.272C43.3738 36.1339 47.3136 24.7677 55.9091 21.885C64.5046 19.0023 74.5008 25.6946 78.2363 36.8327Z" fill="white"/>
      <path d="M124.674 34.8899C123.598 46.5884 115.408 55.399 106.38 54.569C97.3517 53.7389 90.9051 43.5825 91.9807 31.884C93.0563 20.1856 101.247 11.375 110.275 12.205C119.303 13.0351 125.749 23.1915 124.674 34.8899Z" fill="white"/>
      <path d="M110.779 100.777C109.244 117.469 99.3451 130.204 88.6688 129.223C77.9924 128.241 70.5816 113.914 72.1163 97.2226C73.651 80.5311 83.5499 67.7958 94.2263 68.7774C104.903 69.759 112.313 84.0859 110.779 100.777Z" fill="white"/>
      <path d="M166.028 52.3664C162.677 63.6263 152.917 70.6584 144.228 68.0728C135.538 65.4873 131.21 54.2634 134.56 43.0034C137.911 31.7435 147.671 24.7114 156.36 27.297C165.05 29.8825 169.378 41.1064 166.028 52.3664Z" fill="white"/>
      <path d="M92.0942 106.256C98.1236 116.339 96.7037 128.284 88.9228 132.937C81.1419 137.59 69.9465 133.189 63.9171 123.106C57.8878 113.023 59.3076 101.078 67.0885 96.4249C74.8694 91.772 86.0648 96.1735 92.0942 106.256Z" fill="white"/>
      <path d="M118.903 116.376C116.149 127.797 106.771 135.331 97.9578 133.206C89.1445 131.08 84.233 120.099 86.9876 108.678C89.7422 97.258 99.1198 89.7233 107.933 91.849C116.746 93.9748 121.658 104.956 118.903 116.376Z" fill="white"/>
      <path d="M45.2711 65.7248C51.4703 75.7038 50.2527 87.6717 42.5517 92.4557C34.8507 97.2397 23.5824 93.0282 17.3832 83.0492C11.1841 73.0701 12.4016 61.1023 20.1026 56.3183C27.8036 51.5343 39.0719 55.7457 45.2711 65.7248Z" fill="white"/>
    </g>
  </g>
</svg>
